<?xml version="1.0" encoding="UTF-8"?>
<svg xmlns="http://www.w3.org/2000/svg" width="562" height="599" viewBox="243 213 562 599">
  <path d="M 690 614 L 636 614 L 635 615 L 637 623 L 647 644 L 658 660 L 663 665 L 673 653 L 681 640 L 691 617 Z M 562 543 L 555 548 L 543 560 L 538 568 L 532 585 L 532 593 L 531 594 L 531 710 L 532 711 L 533 723 L 540 738 L 546 746 L 555 754 L 565 760 L 585 766 L 664 766 L 708 800 L 712 802 L 716 802 L 720 800 L 723 794 L 723 768 L 725 766 L 747 765 L 754 762 L 757 762 L 765 758 L 776 750 L 784 741 L 793 722 L 795 714 L 795 589 L 793 579 L 787 565 L 778 553 L 767 544 L 755 538 L 739 534 L 587 534 L 573 538 Z M 584 597 L 587 594 L 590 593 L 655 593 L 656 592 L 648 575 L 649 567 L 655 562 L 660 562 L 667 568 L 670 578 L 677 593 L 737 593 L 743 600 L 743 607 L 737 613 L 734 614 L 713 614 L 712 615 L 712 618 L 707 633 L 695 657 L 678 680 L 690 689 L 711 700 L 738 709 L 743 714 L 744 717 L 743 723 L 736 729 L 729 728 L 714 723 L 681 707 L 663 694 L 646 707 L 626 718 L 594 730 L 588 729 L 582 722 L 582 717 L 587 711 L 612 702 L 626 695 L 639 687 L 648 679 L 638 667 L 625 646 L 617 628 L 613 614 L 612 613 L 590 613 L 583 607 L 582 604 Z M 270 225 L 265 228 L 259 234 L 255 240 L 253 248 L 253 700 L 255 706 L 259 713 L 265 719 L 275 723 L 511 723 L 512 721 L 510 713 L 510 593 L 511 592 L 512 580 L 515 570 L 525 551 L 542 533 L 550 527 L 559 522 L 568 519 L 582 516 L 655 516 L 656 515 L 656 336 L 651 326 L 635 309 L 554 228 L 545 223 L 276 223 Z M 490 599 L 489 609 L 431 665 L 427 667 L 422 667 L 418 665 L 414 660 L 413 656 L 414 655 L 414 626 L 413 625 L 326 625 L 322 623 L 317 616 L 317 588 L 319 583 L 324 579 L 413 579 L 414 578 L 414 544 L 420 537 L 426 536 L 430 538 L 484 591 Z M 341 327 L 347 322 L 383 322 L 389 327 L 391 332 L 397 340 L 424 386 L 426 387 L 456 340 L 461 330 L 466 324 L 469 322 L 505 322 L 507 323 L 511 328 L 511 470 L 504 476 L 479 476 L 472 469 L 472 385 L 471 384 L 435 440 L 430 445 L 422 445 L 417 440 L 381 384 L 380 385 L 380 469 L 375 475 L 372 476 L 348 476 L 345 475 L 340 469 L 340 329 Z M 542 253 L 624 335 L 626 338 L 624 340 L 562 340 L 551 336 L 544 330 L 540 321 L 540 311 L 539 310 L 540 308 L 539 256 Z" fill="#ffffff" fill-rule="evenodd"/>
</svg>
